<mxfile host="app.diagrams.net" agent="Mozilla/5.0 (Windows NT 10.0; Win64; x64) AppleWebKit/537.36 (KHTML, like Gecko) Chrome/134.0.0.0 Safari/537.36" version="26.1.1">
  <diagram name="第 1 页" id="Urc2llfQ-ILxeCcKMetX">
    <mxGraphModel dx="736" dy="393" grid="1" gridSize="10" guides="1" tooltips="1" connect="1" arrows="1" fold="1" page="1" pageScale="1" pageWidth="827" pageHeight="1169" math="0" shadow="0">
      <root>
        <mxCell id="0" />
        <mxCell id="1" parent="0" />
        <mxCell id="CybonjJb96y1J8fXGVxk-24" style="edgeStyle=orthogonalEdgeStyle;rounded=0;orthogonalLoop=1;jettySize=auto;html=1;exitX=1;exitY=0.5;exitDx=0;exitDy=0;entryX=0;entryY=0.5;entryDx=0;entryDy=0;fontStyle=2" edge="1" parent="1" source="CybonjJb96y1J8fXGVxk-1" target="CybonjJb96y1J8fXGVxk-14">
          <mxGeometry relative="1" as="geometry" />
        </mxCell>
        <mxCell id="CybonjJb96y1J8fXGVxk-44" style="edgeStyle=orthogonalEdgeStyle;rounded=0;orthogonalLoop=1;jettySize=auto;html=1;exitX=0;exitY=1;exitDx=0;exitDy=0;entryX=0;entryY=0;entryDx=0;entryDy=0;dashed=1;curved=1;" edge="1" parent="1" source="CybonjJb96y1J8fXGVxk-1" target="CybonjJb96y1J8fXGVxk-19">
          <mxGeometry relative="1" as="geometry">
            <Array as="points">
              <mxPoint x="220" y="274" />
              <mxPoint x="220" y="406" />
            </Array>
          </mxGeometry>
        </mxCell>
        <mxCell id="CybonjJb96y1J8fXGVxk-1" value="O&lt;sub&gt;11&lt;/sub&gt;" style="ellipse;whiteSpace=wrap;html=1;aspect=fixed;fontFamily=Times New Roman;fontStyle=2" vertex="1" parent="1">
          <mxGeometry x="240" y="240" width="40" height="40" as="geometry" />
        </mxCell>
        <mxCell id="CybonjJb96y1J8fXGVxk-35" style="rounded=0;orthogonalLoop=1;jettySize=auto;html=1;exitX=1;exitY=0.5;exitDx=0;exitDy=0;entryX=0;entryY=0;entryDx=0;entryDy=0;" edge="1" parent="1" source="CybonjJb96y1J8fXGVxk-13" target="CybonjJb96y1J8fXGVxk-22">
          <mxGeometry relative="1" as="geometry" />
        </mxCell>
        <mxCell id="CybonjJb96y1J8fXGVxk-40" style="edgeStyle=orthogonalEdgeStyle;rounded=0;orthogonalLoop=1;jettySize=auto;html=1;exitX=0.5;exitY=1;exitDx=0;exitDy=0;entryX=0.5;entryY=0;entryDx=0;entryDy=0;dashed=1;fontStyle=2" edge="1" parent="1" source="CybonjJb96y1J8fXGVxk-13" target="CybonjJb96y1J8fXGVxk-17">
          <mxGeometry relative="1" as="geometry" />
        </mxCell>
        <mxCell id="CybonjJb96y1J8fXGVxk-13" value="O&lt;sub&gt;13&lt;/sub&gt;" style="ellipse;whiteSpace=wrap;html=1;aspect=fixed;fontFamily=Times New Roman;fontStyle=2" vertex="1" parent="1">
          <mxGeometry x="400" y="240" width="40" height="40" as="geometry" />
        </mxCell>
        <mxCell id="CybonjJb96y1J8fXGVxk-26" style="edgeStyle=orthogonalEdgeStyle;rounded=0;orthogonalLoop=1;jettySize=auto;html=1;exitX=1;exitY=0.5;exitDx=0;exitDy=0;entryX=0;entryY=0.5;entryDx=0;entryDy=0;fontStyle=2" edge="1" parent="1" source="CybonjJb96y1J8fXGVxk-14" target="CybonjJb96y1J8fXGVxk-13">
          <mxGeometry relative="1" as="geometry" />
        </mxCell>
        <mxCell id="CybonjJb96y1J8fXGVxk-14" value="O&lt;sub&gt;12&lt;/sub&gt;" style="ellipse;whiteSpace=wrap;html=1;aspect=fixed;fontFamily=Times New Roman;fontStyle=2" vertex="1" parent="1">
          <mxGeometry x="320" y="240" width="40" height="40" as="geometry" />
        </mxCell>
        <mxCell id="CybonjJb96y1J8fXGVxk-27" style="edgeStyle=orthogonalEdgeStyle;rounded=0;orthogonalLoop=1;jettySize=auto;html=1;exitX=1;exitY=0.5;exitDx=0;exitDy=0;entryX=0;entryY=0.5;entryDx=0;entryDy=0;fontStyle=2" edge="1" parent="1" source="CybonjJb96y1J8fXGVxk-16" target="CybonjJb96y1J8fXGVxk-18">
          <mxGeometry relative="1" as="geometry" />
        </mxCell>
        <mxCell id="CybonjJb96y1J8fXGVxk-16" value="O&lt;sub&gt;21&lt;/sub&gt;" style="ellipse;whiteSpace=wrap;html=1;aspect=fixed;fontFamily=Times New Roman;fontStyle=2" vertex="1" parent="1">
          <mxGeometry x="240" y="320" width="40" height="40" as="geometry" />
        </mxCell>
        <mxCell id="CybonjJb96y1J8fXGVxk-36" style="rounded=0;orthogonalLoop=1;jettySize=auto;html=1;exitX=1;exitY=0.5;exitDx=0;exitDy=0;entryX=0;entryY=0.5;entryDx=0;entryDy=0;" edge="1" parent="1" source="CybonjJb96y1J8fXGVxk-17" target="CybonjJb96y1J8fXGVxk-22">
          <mxGeometry relative="1" as="geometry" />
        </mxCell>
        <mxCell id="CybonjJb96y1J8fXGVxk-17" value="O&lt;sub&gt;23&lt;/sub&gt;" style="ellipse;whiteSpace=wrap;html=1;aspect=fixed;fontFamily=Times New Roman;fontStyle=2" vertex="1" parent="1">
          <mxGeometry x="400" y="320" width="40" height="40" as="geometry" />
        </mxCell>
        <mxCell id="CybonjJb96y1J8fXGVxk-28" style="edgeStyle=orthogonalEdgeStyle;rounded=0;orthogonalLoop=1;jettySize=auto;html=1;exitX=1;exitY=0.5;exitDx=0;exitDy=0;entryX=0;entryY=0.5;entryDx=0;entryDy=0;fontStyle=2" edge="1" parent="1" source="CybonjJb96y1J8fXGVxk-18" target="CybonjJb96y1J8fXGVxk-17">
          <mxGeometry relative="1" as="geometry" />
        </mxCell>
        <mxCell id="CybonjJb96y1J8fXGVxk-42" style="edgeStyle=orthogonalEdgeStyle;rounded=0;orthogonalLoop=1;jettySize=auto;html=1;exitX=0.5;exitY=1;exitDx=0;exitDy=0;entryX=0.5;entryY=0;entryDx=0;entryDy=0;dashed=1;fontStyle=2" edge="1" parent="1" source="CybonjJb96y1J8fXGVxk-18" target="CybonjJb96y1J8fXGVxk-21">
          <mxGeometry relative="1" as="geometry" />
        </mxCell>
        <mxCell id="CybonjJb96y1J8fXGVxk-18" value="O&lt;sub&gt;22&lt;/sub&gt;" style="ellipse;whiteSpace=wrap;html=1;aspect=fixed;fontFamily=Times New Roman;fontStyle=2" vertex="1" parent="1">
          <mxGeometry x="320" y="320" width="40" height="40" as="geometry" />
        </mxCell>
        <mxCell id="CybonjJb96y1J8fXGVxk-29" style="edgeStyle=orthogonalEdgeStyle;rounded=0;orthogonalLoop=1;jettySize=auto;html=1;exitX=1;exitY=0.5;exitDx=0;exitDy=0;entryX=0;entryY=0.5;entryDx=0;entryDy=0;fontStyle=2" edge="1" parent="1" source="CybonjJb96y1J8fXGVxk-19" target="CybonjJb96y1J8fXGVxk-21">
          <mxGeometry relative="1" as="geometry" />
        </mxCell>
        <mxCell id="CybonjJb96y1J8fXGVxk-19" value="O&lt;sub&gt;31&lt;/sub&gt;" style="ellipse;whiteSpace=wrap;html=1;aspect=fixed;fontFamily=Times New Roman;fontStyle=2" vertex="1" parent="1">
          <mxGeometry x="240" y="400" width="40" height="40" as="geometry" />
        </mxCell>
        <mxCell id="CybonjJb96y1J8fXGVxk-37" style="rounded=0;orthogonalLoop=1;jettySize=auto;html=1;exitX=1;exitY=0.5;exitDx=0;exitDy=0;entryX=0;entryY=1;entryDx=0;entryDy=0;" edge="1" parent="1" source="CybonjJb96y1J8fXGVxk-20" target="CybonjJb96y1J8fXGVxk-22">
          <mxGeometry relative="1" as="geometry" />
        </mxCell>
        <mxCell id="CybonjJb96y1J8fXGVxk-20" value="O&lt;sub&gt;33&lt;/sub&gt;" style="ellipse;whiteSpace=wrap;html=1;aspect=fixed;fontFamily=Times New Roman;fontStyle=2" vertex="1" parent="1">
          <mxGeometry x="400" y="400" width="40" height="40" as="geometry" />
        </mxCell>
        <mxCell id="CybonjJb96y1J8fXGVxk-31" style="edgeStyle=orthogonalEdgeStyle;rounded=0;orthogonalLoop=1;jettySize=auto;html=1;exitX=1;exitY=0.5;exitDx=0;exitDy=0;entryX=0;entryY=0.5;entryDx=0;entryDy=0;fontStyle=2" edge="1" parent="1" source="CybonjJb96y1J8fXGVxk-21" target="CybonjJb96y1J8fXGVxk-20">
          <mxGeometry relative="1" as="geometry" />
        </mxCell>
        <mxCell id="CybonjJb96y1J8fXGVxk-21" value="O&lt;sub&gt;32&lt;/sub&gt;" style="ellipse;whiteSpace=wrap;html=1;aspect=fixed;fontFamily=Times New Roman;fontStyle=2" vertex="1" parent="1">
          <mxGeometry x="320" y="400" width="40" height="40" as="geometry" />
        </mxCell>
        <mxCell id="CybonjJb96y1J8fXGVxk-22" value="End" style="ellipse;whiteSpace=wrap;html=1;aspect=fixed;fontFamily=Times New Roman;" vertex="1" parent="1">
          <mxGeometry x="480" y="320" width="40" height="40" as="geometry" />
        </mxCell>
        <mxCell id="CybonjJb96y1J8fXGVxk-32" style="rounded=0;orthogonalLoop=1;jettySize=auto;html=1;exitX=1;exitY=0;exitDx=0;exitDy=0;entryX=0;entryY=0.5;entryDx=0;entryDy=0;" edge="1" parent="1" source="CybonjJb96y1J8fXGVxk-23" target="CybonjJb96y1J8fXGVxk-1">
          <mxGeometry relative="1" as="geometry" />
        </mxCell>
        <mxCell id="CybonjJb96y1J8fXGVxk-33" style="edgeStyle=orthogonalEdgeStyle;rounded=0;orthogonalLoop=1;jettySize=auto;html=1;exitX=1;exitY=0.5;exitDx=0;exitDy=0;entryX=0;entryY=0.5;entryDx=0;entryDy=0;" edge="1" parent="1" source="CybonjJb96y1J8fXGVxk-23" target="CybonjJb96y1J8fXGVxk-16">
          <mxGeometry relative="1" as="geometry" />
        </mxCell>
        <mxCell id="CybonjJb96y1J8fXGVxk-34" style="rounded=0;orthogonalLoop=1;jettySize=auto;html=1;exitX=1;exitY=1;exitDx=0;exitDy=0;entryX=0;entryY=0.5;entryDx=0;entryDy=0;" edge="1" parent="1" source="CybonjJb96y1J8fXGVxk-23" target="CybonjJb96y1J8fXGVxk-19">
          <mxGeometry relative="1" as="geometry" />
        </mxCell>
        <mxCell id="CybonjJb96y1J8fXGVxk-23" value="Begin" style="ellipse;whiteSpace=wrap;html=1;aspect=fixed;fontFamily=Times New Roman;" vertex="1" parent="1">
          <mxGeometry x="160" y="320" width="40" height="40" as="geometry" />
        </mxCell>
        <mxCell id="CybonjJb96y1J8fXGVxk-39" style="rounded=0;orthogonalLoop=1;jettySize=auto;html=1;exitX=0.983;exitY=0.656;exitDx=0;exitDy=0;entryX=0.002;entryY=0.647;entryDx=0;entryDy=0;exitPerimeter=0;entryPerimeter=0;dashed=1;fontStyle=2" edge="1" parent="1">
          <mxGeometry relative="1" as="geometry">
            <mxPoint x="360.00000000000006" y="270.36" as="sourcePoint" />
            <mxPoint x="400.75999999999993" y="269.99999999999994" as="targetPoint" />
          </mxGeometry>
        </mxCell>
        <mxCell id="CybonjJb96y1J8fXGVxk-41" style="rounded=0;orthogonalLoop=1;jettySize=auto;html=1;exitX=0.983;exitY=0.656;exitDx=0;exitDy=0;entryX=0.002;entryY=0.647;entryDx=0;entryDy=0;exitPerimeter=0;entryPerimeter=0;dashed=1;fontStyle=2" edge="1" parent="1">
          <mxGeometry relative="1" as="geometry">
            <mxPoint x="280" y="350" as="sourcePoint" />
            <mxPoint x="321" y="350" as="targetPoint" />
          </mxGeometry>
        </mxCell>
        <mxCell id="CybonjJb96y1J8fXGVxk-43" style="rounded=0;orthogonalLoop=1;jettySize=auto;html=1;exitX=0.983;exitY=0.656;exitDx=0;exitDy=0;entryX=0.002;entryY=0.647;entryDx=0;entryDy=0;exitPerimeter=0;entryPerimeter=0;dashed=1;fontStyle=2" edge="1" parent="1">
          <mxGeometry relative="1" as="geometry">
            <mxPoint x="359" y="410" as="sourcePoint" />
            <mxPoint x="400" y="410" as="targetPoint" />
          </mxGeometry>
        </mxCell>
      </root>
    </mxGraphModel>
  </diagram>
</mxfile>
